<?xml version="1.0" standalone="no"?>
<!DOCTYPE svg PUBLIC "-//W3C//DTD SVG 20010904//EN"
 "http://www.w3.org/TR/2001/REC-SVG-20010904/DTD/svg10.dtd">
<svg version="1.0" xmlns="http://www.w3.org/2000/svg"
 width="750.000000pt" height="430.000000pt" viewBox="0 0 750.000000 430.000000"
 preserveAspectRatio="xMidYMid meet">
<metadata>
Created by potrace 1.15, written by Peter Selinger 2001-2017
</metadata>
<g transform="translate(0.000000,430.000000) scale(0.100000,-0.100000)"
fill="#000000" stroke="none">
<path d="M515 3944 c-125 -20 -235 -75 -325 -164 -120 -119 -178 -275 -166
-445 11 -159 56 -257 165 -365 118 -117 236 -164 416 -164 159 0 277 46 405
161 l44 40 -62 70 c-93 105 -83 102 -144 49 -74 -65 -142 -89 -248 -90 -74 -1
-93 3 -142 27 -98 48 -159 134 -177 249 -26 159 40 295 181 370 37 20 57 23
153 23 100 0 115 -2 160 -27 28 -14 69 -44 92 -67 l41 -40 78 86 78 86 -52 47
c-105 98 -229 148 -375 154 -51 3 -105 2 -122 0z"/>
<path d="M2540 3671 c-45 -14 -105 -48 -124 -70 -28 -31 -36 -26 -36 24 l0 46
-117 -3 -118 -3 -3 -415 c-1 -228 -1 -419 2 -425 2 -6 48 -9 120 -7 l116 3 0
256 c0 289 5 317 61 368 37 33 104 59 130 51 8 -2 26 -7 41 -10 15 -3 40 -23
55 -43 l28 -36 5 -294 5 -294 118 -2 118 -2 -3 315 c-3 298 -5 318 -25 362
-53 114 -150 179 -273 184 -41 2 -86 0 -100 -5z"/>
<path d="M3370 3664 c-86 -18 -234 -90 -226 -110 3 -9 27 -44 52 -80 l46 -64
33 20 c86 53 236 77 294 47 31 -16 58 -54 66 -93 l6 -32 -153 -5 c-170 -5
-230 -19 -296 -67 -79 -57 -109 -165 -77 -276 22 -77 96 -153 176 -180 117
-39 237 -19 321 55 l37 32 3 -46 c2 -25 6 -45 11 -45 4 0 52 0 107 0 l100 0 0
303 c0 324 -5 364 -51 431 -72 106 -258 151 -449 110z m260 -526 c0 -87 -67
-142 -168 -141 -83 1 -135 51 -118 117 12 49 57 66 179 66 l107 0 0 -42z"/>
<path d="M4468 3665 c-25 -8 -69 -30 -96 -49 l-51 -34 -3 42 -3 41 -117 3
-118 3 0 -581 0 -580 120 0 120 0 0 207 0 207 38 -36 c165 -162 449 -82 558
157 102 222 12 501 -193 602 -68 33 -182 41 -255 18z m159 -221 c54 -44 84
-104 90 -177 7 -82 -10 -139 -54 -188 -83 -92 -184 -102 -269 -26 -122 106
-102 334 36 409 55 30 148 21 197 -18z"/>
<path d="M1113 3658 c28 -65 246 -625 282 -722 50 -139 52 -155 28 -196 -32
-55 -93 -59 -164 -9 l-27 19 -52 -86 -53 -87 24 -19 c90 -71 211 -96 309 -63
58 19 132 80 157 129 16 30 413 1032 413 1041 0 3 -56 5 -124 5 l-123 0 -58
-147 c-137 -351 -153 -388 -160 -371 -4 10 -51 129 -105 265 l-97 248 -128 3
c-101 2 -126 0 -122 -10z"/>
<path d="M5981 2145 c-109 -34 -217 -145 -253 -257 -11 -35 -22 -108 -25 -165
l-6 -103 -144 0 c-104 0 -161 5 -200 16 -40 12 -82 15 -147 12 -80 -3 -99 -8
-154 -38 -103 -55 -162 -148 -162 -255 0 -143 110 -250 283 -277 l73 -11 20
-61 c11 -34 24 -68 28 -77 6 -14 -6 -17 -91 -22 -256 -16 -416 -135 -401 -297
16 -163 274 -280 524 -238 117 20 203 58 254 114 52 56 70 103 70 178 0 93
-34 144 -159 240 -105 80 -151 130 -151 162 0 14 14 24 51 37 170 61 242 267
144 411 -14 20 -25 39 -25 41 0 3 43 5 95 5 l95 0 0 -385 0 -385 90 0 90 0 0
385 0 385 95 0 95 0 0 -385 0 -385 90 0 90 0 0 415 0 415 -186 0 -186 0 4 173
c3 156 5 176 26 219 27 55 62 83 120 96 77 18 115 -34 78 -107 -44 -84 16
-152 109 -121 59 20 84 103 51 169 -48 93 -167 133 -285 96z m-661 -560 c66
-34 93 -99 94 -226 0 -81 -4 -102 -25 -144 -33 -67 -74 -90 -161 -90 -75 0
-109 18 -143 76 -17 29 -20 52 -20 164 0 142 10 178 61 212 49 32 139 35 194
8z m52 -762 c85 -71 114 -132 105 -220 -12 -114 -94 -182 -231 -191 -175 -11
-286 73 -286 218 0 145 97 219 287 220 85 0 94 -2 125 -27z"/>
<path d="M1290 1715 c-8 -10 -11 -57 -8 -154 3 -122 6 -143 24 -167 55 -74
144 -94 223 -52 70 38 81 68 81 229 0 101 -3 139 -13 148 -29 23 -37 -9 -37
-141 0 -174 -19 -209 -112 -210 -44 0 -85 24 -105 63 -8 15 -13 71 -13 155 0
105 -3 133 -14 137 -8 3 -20 -1 -26 -8z"/>
<path d="M3942 1627 c-23 -23 -42 -46 -42 -50 0 -4 11 -7 25 -7 l25 0 0 -103
c0 -68 4 -109 13 -121 17 -23 86 -32 111 -13 26 19 12 41 -21 32 -44 -11 -53
8 -53 111 l0 94 34 0 c36 0 70 26 45 34 -8 3 -27 6 -44 8 -24 2 -31 8 -33 31
-2 15 -7 27 -11 27 -4 0 -26 -19 -49 -43z"/>
<path d="M1707 1614 c-4 -4 -7 -69 -7 -145 0 -138 4 -153 38 -142 8 3 12 33
12 103 0 96 1 99 28 118 40 28 68 35 94 21 35 -19 38 -27 38 -136 0 -103 8
-126 35 -103 18 15 21 180 4 229 -21 61 -100 79 -162 37 l-36 -25 -3 22 c-3
22 -28 34 -41 21z"/>
<path d="M2102 1603 c-44 -21 -66 -65 -66 -134 -1 -64 18 -99 67 -129 58 -36
194 -15 185 27 -2 12 -11 17 -23 14 -11 -2 -44 -5 -73 -8 -57 -5 -86 10 -102
52 -7 19 -2 20 99 25 l106 5 3 32 c9 96 -102 162 -196 116z"/>
<path d="M2564 1610 c-29 -12 -54 -49 -54 -80 0 -37 35 -65 103 -85 62 -18 78
-35 56 -61 -11 -14 -26 -15 -86 -10 -62 5 -73 3 -73 -10 0 -24 67 -47 124 -41
38 3 55 11 73 31 47 55 21 107 -65 132 -66 19 -82 30 -82 54 0 27 44 41 107
34 50 -6 55 -5 51 12 -5 29 -103 45 -154 24z"/>
<path d="M2853 1600 c-49 -30 -66 -63 -66 -131 0 -69 19 -104 74 -131 67 -35
151 -14 189 47 27 44 27 128 0 173 -36 60 -134 81 -197 42z m117 -35 c38 -20
50 -43 50 -100 0 -63 -31 -95 -93 -95 -61 0 -92 33 -92 100 0 84 66 131 135
95z"/>
<path d="M3211 1602 c-96 -48 -109 -185 -23 -250 29 -22 46 -27 92 -27 70 0
122 28 97 52 -11 12 -19 12 -35 4 -11 -6 -39 -11 -62 -11 -117 0 -139 163 -27
199 26 9 43 8 75 -3 35 -13 42 -13 52 -1 9 11 5 18 -22 35 -41 25 -101 26
-147 2z"/>
<path d="M3660 1607 c-43 -22 -70 -73 -70 -136 0 -98 53 -151 152 -151 42 0
108 30 108 49 0 14 -23 19 -45 10 -11 -4 -42 -8 -68 -8 -38 -1 -53 4 -72 24
-47 46 -36 55 74 55 116 0 128 7 112 67 -23 85 -115 129 -191 90z"/>
<path d="M4214 1611 c-34 -15 -72 -67 -79 -110 -13 -77 23 -145 88 -170 63
-24 173 0 165 36 -2 10 -11 16 -19 14 -8 -2 -38 -6 -66 -9 -59 -5 -98 13 -112
51 -8 22 -6 22 98 27 l106 5 -1 48 c-1 67 -41 108 -111 113 -26 2 -57 0 -69
-5z"/>
<path d="M1807 1194 c-4 -4 -7 -40 -7 -80 l0 -72 -37 19 c-47 24 -79 24 -123
0 -95 -50 -99 -204 -7 -262 38 -24 117 -21 146 5 17 16 19 16 24 -4 4 -14 12
-21 24 -18 17 3 18 18 18 208 0 177 -2 205 -15 208 -9 1 -19 0 -23 -4z m-33
-185 c23 -18 26 -27 26 -84 0 -57 -2 -64 -27 -81 -61 -40 -143 -11 -158 57 -8
38 11 95 38 114 31 22 89 19 121 -6z"/>
<path d="M2570 1179 c-52 -16 -95 -53 -120 -105 -19 -38 -22 -57 -17 -110 9
-123 87 -191 210 -182 34 3 79 12 100 21 l38 16 -3 88 -3 88 -75 0 c-62 0 -75
-3 -78 -17 -3 -14 6 -17 55 -20 l58 -3 3 -53 c3 -49 1 -53 -25 -64 -83 -33
-185 -1 -218 69 -22 46 -16 133 12 171 44 61 142 78 219 39 33 -16 54 -12 54
9 0 36 -145 72 -210 53z"/>
<path d="M1951 1067 c-14 -14 -15 -184 0 -225 15 -45 52 -65 106 -59 24 2 52
12 62 21 23 21 28 20 34 -5 4 -13 12 -20 24 -17 16 3 18 17 21 144 2 117 0
143 -12 147 -26 10 -35 -17 -38 -113 l-3 -94 -35 -24 c-26 -17 -43 -22 -65
-18 -47 10 -55 29 -55 142 0 77 -3 103 -14 107 -7 3 -19 0 -25 -6z"/>
<path d="M2882 1071 c-9 -6 -12 -44 -10 -147 3 -131 4 -139 23 -139 19 0 20 8
23 102 3 96 4 103 29 123 14 11 38 20 53 20 28 0 41 15 33 38 -8 20 -50 14
-82 -14 -22 -18 -31 -22 -31 -11 0 20 -23 37 -38 28z"/>
<path d="M3153 1066 c-87 -40 -106 -181 -33 -251 23 -22 41 -29 83 -33 65 -5
109 14 137 61 38 62 19 176 -36 212 -35 23 -112 28 -151 11z m132 -61 c35 -34
35 -112 1 -152 -34 -39 -95 -39 -133 0 -23 23 -28 36 -28 78 0 43 4 54 28 75
39 33 99 33 132 -1z"/>
<path d="M3453 1073 c-10 -3 -13 -37 -13 -120 0 -113 0 -115 29 -144 36 -35
90 -39 139 -9 39 24 42 24 42 6 0 -22 19 -30 35 -16 12 10 15 41 15 140 0 99
-3 130 -15 140 -27 22 -35 0 -35 -94 0 -88 -1 -94 -27 -118 -38 -36 -77 -44
-108 -24 -24 16 -25 21 -25 120 0 104 -8 129 -37 119z"/>
<path d="M3802 1072 c-9 -7 -12 -56 -10 -213 3 -196 4 -204 23 -204 18 0 20 8
23 84 3 81 3 83 22 66 11 -10 39 -20 63 -22 87 -10 147 49 147 146 0 65 -26
112 -74 135 -44 21 -73 20 -116 -2 -33 -16 -36 -16 -50 0 -9 11 -20 15 -28 10z
m180 -53 c28 -15 50 -73 42 -114 -13 -71 -95 -103 -157 -62 -25 16 -27 23 -27
85 0 63 2 69 28 84 31 20 84 23 114 7z"/>
<path d="M4220 1069 c-42 -17 -68 -49 -80 -99 -19 -80 13 -157 77 -181 61 -23
173 1 173 37 0 13 -6 15 -37 8 -89 -19 -143 -2 -163 51 -7 19 -2 20 99 25
l106 5 3 35 c7 87 -92 153 -178 119z"/>
</g>
</svg>
